<svg xmlns="http://www.w3.org/2000/svg" viewBox="0 0 311 81" width="311" height="81">
	<style>
		tspan { white-space:pre }
		.shp0 { fill: #111111 } 
	</style>
	<g id="SvgjsG2060">
		<path id="polygon3" class="shp0" d="M49.68 1L49.83 1.05L100 17.77L79.35 48.13L70.04 18.38L70.95 18.1L79.67 45.97L98.5 18.28L49.68 2.01L1.49 18.28L20.07 45.96L28.68 18.1L29.59 18.38L20.39 48.14L0 17.77L49.68 1Z" />
		<path id="polygon5" class="shp0" d="M21.28 42.32L22.19 42.04L28.69 63.08L49.68 79.7L70.86 63.08L77.42 42.04L78.33 42.32L71.68 63.64L49.68 80.92L27.87 63.64L21.28 42.32Z" />
		<path id="polygon7" class="shp0" d="M40.33 36.42L29.53 35.02L29.65 34.08L41.75 35.64L28.71 63.56L27.85 63.16L40.33 36.42Z" />
		<path id="polygon9" class="shp0" d="M41.28 73.88L40.8 73.06L49.68 67.89L58.63 73.05L58.16 73.88L49.68 69L41.28 73.88Z" />
		<path id="path11" fill-rule="evenodd" class="shp0" d="M49.84 69.12L44.7 64.32L49.52 59.17L54.66 63.97L49.84 69.12ZM46.05 64.27L49.8 67.77L53.31 64.01L49.56 60.51L46.05 64.27Z" />
		<path id="polygon13" class="shp0" d="M69.44 34.08L69.56 35.02L58.23 36.42L71.3 63.15L70.44 63.57L56.78 35.64L69.44 34.08Z" />
	</g>
	<g id="SvgjsG2061">
		<path id="path16" fill-rule="evenodd" class="shp0" d="M129.8 62.08L127.43 39.38L127.31 39.38L124.93 62.08L115.75 62.08L111 19.49L117.51 19.49L121.04 53.07L121.16 53.07L124.33 19.49L130.77 19.49L134.06 53.32L134.18 53.32L137.59 19.49L143.43 19.49L138.68 62.08L129.8 62.08ZM161.62 19.49L168.44 62.08L161.68 62.08L160.53 54.35L152.31 54.35L151.16 62.08L145.01 62.08L151.83 19.49L161.62 19.49ZM156.33 27.03L153.17 48.57L159.62 48.57L156.45 27.03L156.33 27.03ZM169.59 25.57L169.59 19.49L190.28 19.49L190.28 25.57L183.28 25.57L183.28 62.08L176.59 62.08L176.59 25.57L169.59 25.57ZM206.28 46.2L212.61 46.2L212.61 51.86C212.61 58.67 209.21 62.57 202.63 62.57C196.06 62.57 192.65 58.67 192.65 51.86L192.65 29.71C192.65 22.89 196.06 19 202.63 19C209.21 19 212.61 22.89 212.61 29.71L212.61 33.85L206.28 33.85L206.28 29.28C206.28 26.24 204.95 25.08 202.82 25.08C200.69 25.08 199.35 26.24 199.35 29.28L199.35 52.28C199.35 55.32 200.69 56.42 202.82 56.42C204.95 56.42 206.28 55.32 206.28 52.28L206.28 46.2ZM223.38 43.83L223.38 62.08L216.69 62.08L216.69 19.49L223.38 19.49L223.38 37.74L230.99 37.74L230.99 19.49L237.8 19.49L237.8 62.08L230.99 62.08L230.99 43.83L223.38 43.83ZM242.67 62.08L242.67 19.49L253.26 19.49C259.95 19.49 263.24 23.2 263.24 30.01L263.24 51.55C263.24 58.37 259.95 62.08 253.26 62.08L242.67 62.08ZM249.36 25.57L249.36 55.99L253.14 55.99C255.27 55.99 256.54 54.9 256.54 51.86L256.54 29.71C256.54 26.67 255.27 25.57 253.14 25.57L249.36 25.57ZM266.95 29.71C266.95 22.89 270.54 19 277.11 19C283.68 19 287.27 22.89 287.27 29.71L287.27 51.86C287.27 58.67 283.68 62.57 277.11 62.57C270.54 62.57 266.95 58.67 266.95 51.86L266.95 29.71ZM273.64 29.28L273.64 52.28C273.64 55.32 274.98 56.48 277.11 56.48C279.24 56.48 280.58 55.32 280.58 52.28L280.58 29.28C280.58 26.24 279.24 25.08 277.11 25.08C274.98 25.08 273.64 26.24 273.64 29.28ZM301.63 44.43L301.63 38.35L311 38.35L311 51.86C311 58.67 307.59 62.57 301.02 62.57C294.45 62.57 291.04 58.67 291.04 51.86L291.04 29.71C291.04 22.89 294.45 19 301.02 19C307.59 19 311 22.89 311 29.71L311 33.85L304.67 33.85L304.67 29.28C304.67 26.24 303.33 25.08 301.2 25.08C299.07 25.08 297.74 26.24 297.74 29.28L297.74 52.28C297.74 55.32 299.07 56.42 301.2 56.42C303.33 56.42 304.67 55.32 304.67 52.28L304.67 44.43L301.63 44.43Z" />
	</g>
</svg>