<?xml version="1.0" encoding="UTF-8" standalone="no"?>
<svg
   xmlns:dc="http://purl.org/dc/elements/1.1/"
   xmlns:cc="http://creativecommons.org/ns#"
   xmlns:rdf="http://www.w3.org/1999/02/22-rdf-syntax-ns#"
   xmlns:svg="http://www.w3.org/2000/svg"
   xmlns="http://www.w3.org/2000/svg"
   height="143.56557"
   width="200"
   version="1.1"
   id="cdgaaccf"
   class="css-5yjtbz"
   preserveAspectRatio="xMidYMid meet"
   viewBox="0 0 200 143.56557">
  <metadata
     id="metadata22">
    <rdf:RDF>
      <cc:Work
         rdf:about="">
        <dc:format>image/svg+xml</dc:format>
        <dc:type
           rdf:resource="http://purl.org/dc/dcmitype/StillImage" />
      </cc:Work>
    </rdf:RDF>
  </metadata>
  <defs
     id="SvgjsDefs2059" />
  <g
     style="fill:#111111"
     transform="matrix(1.271068,0,0,1.271068,36.126294,-25.130286)"
     featurekey="symbolFeature-0"
     id="SvgjsG2060">
    <polygon
       id="polygon3"
       points="49.999,19.771 50.119,19.811 89.589,32.967 73.342,56.853 66.02,33.445 66.734,33.221 73.594,55.147 88.411,33.366 50.001,20.562 12.085,33.365 26.707,55.139 33.475,33.222 34.191,33.444 26.959,56.861 10.915,32.968 " />
    <polygon
       id="polygon5"
       points="27.657,52.282 28.374,52.062 33.49,68.611 50.001,81.689 66.661,68.61 71.822,52.061 72.539,52.283 67.308,69.056 49.999,82.645 32.843,69.055 " />
    <polygon
       id="polygon7"
       points="42.648,47.639 34.147,46.539 34.244,45.794 43.761,47.027 33.506,68.991 32.827,68.675 " />
    <polygon
       id="polygon9"
       points="43.394,77.108 43.017,76.46 49.999,72.399 57.044,76.459 56.669,77.109 50.001,73.267 " />
    <path
       id="path11"
       d="m 50.128,73.363 -4.043,-3.779 3.787,-4.052 4.044,3.779 z m -2.983,-3.814 2.947,2.754 2.764,-2.956 -2.948,-2.754 z" />
    <polygon
       id="polygon13"
       points="65.549,45.794 65.641,46.538 56.726,47.641 67.01,68.668 66.336,68.998 55.589,47.025 " />
  </g>
  <g
     style="fill:#111111"
     transform="matrix(1.5211439,0,0,1.5211439,-0.91268637,82.233043)"
     featurekey="nameFeature-0"
     id="SvgjsG2061">
    <path
       id="path16"
       d="M 12.96,40 11.4,25.08 H 11.32 L 9.76,40 H 3.72 L 0.6,12 H 4.88 L 7.2,34.08 H 7.28 L 9.36,12 h 4.24 l 2.16,22.24 h 0.08 L 18.08,12 h 3.84 L 18.8,40 Z m 20.92,-28 4.48,28 h -4.44 l -0.76,-5.08 h -5.4 L 27,40 h -4.04 l 4.48,-28 z m -3.48,4.96 -2.08,14.16 h 4.24 L 30.48,16.96 Z M 39.12,16 v -4 h 13.6 v 4 h -4.6 v 24 h -4.4 V 16 Z m 24.12,13.56 h 4.16 v 3.72 c 0,4.48 -2.24,7.04 -6.56,7.04 -4.32,0 -6.56,-2.56 -6.56,-7.04 V 18.72 c 0,-4.48 2.24,-7.04 6.56,-7.04 4.32,0 6.56,2.56 6.56,7.04 v 2.72 h -4.16 v -3 c 0,-2 -0.88,-2.76 -2.28,-2.76 -1.4,0 -2.28,0.76 -2.28,2.76 v 15.12 c 0,2 0.88,2.72 2.28,2.72 1.4,0 2.28,-0.72 2.28,-2.72 z M 74.48,28 v 12 h -4.4 V 12 h 4.4 v 12 h 5 V 12 h 4.48 V 40 H 79.48 V 28 Z M 87.16,40 V 12 h 6.96 c 4.4,0 6.56,2.44 6.56,6.92 v 14.16 c 0,4.48 -2.16,6.92 -6.56,6.92 z m 6.88,-24 h -2.48 v 20 h 2.48 c 1.4,0 2.24,-0.72 2.24,-2.72 V 18.72 c 0,-2 -0.84,-2.72 -2.24,-2.72 z m 13.48,2.44 v 15.12 c 0,2 0.88,2.76 2.28,2.76 1.4,0 2.28,-0.76 2.28,-2.76 V 18.44 c 0,-2 -0.88,-2.76 -2.28,-2.76 -1.4,0 -2.28,0.76 -2.28,2.76 z m -4.4,14.84 V 18.72 c 0,-4.48 2.36,-7.04 6.68,-7.04 4.32,0 6.68,2.56 6.68,7.04 v 14.56 c 0,4.48 -2.36,7.04 -6.68,7.04 -4.32,0 -6.68,-2.56 -6.68,-7.04 z m 22.8,-4.88 v -4 h 6.16 v 8.88 c 0,4.48 -2.24,7.04 -6.56,7.04 -4.32,0 -6.56,-2.56 -6.56,-7.04 V 18.72 c 0,-4.48 2.24,-7.04 6.56,-7.04 4.32,0 6.56,2.56 6.56,7.04 v 2.72 h -4.16 v -3 c 0,-2 -0.88,-2.76 -2.28,-2.76 -1.4,0 -2.28,0.76 -2.28,2.76 v 15.12 c 0,2 0.88,2.72 2.28,2.72 1.4,0 2.28,-0.72 2.28,-2.72 V 28.4 Z" />
  </g>
</svg>
